<?xml version="1.0" standalone="no"?>
<!DOCTYPE svg PUBLIC "-//W3C//DTD SVG 20010904//EN"
 "http://www.w3.org/TR/2001/REC-SVG-20010904/DTD/svg10.dtd">
<svg version="1.0" xmlns="http://www.w3.org/2000/svg"
 width="1188.000000pt" height="1280.000000pt" viewBox="0 0 1188.000000 1280.000000"
 preserveAspectRatio="xMidYMid meet">
<metadata>
Created by potrace 1.15, written by Peter Selinger 2001-2017
</metadata>
<g transform="translate(0.000000,1280.000000) scale(0.100000,-0.100000)"
fill="#000000" stroke="none">
<path d="M6455 12789 c-123 -13 -317 -56 -450 -101 -287 -96 -614 -287 -818
-477 l-66 -62 -7 35 c-3 20 -5 105 -3 191 2 85 2 155 0 155 -17 0 -218 -117
-321 -185 -419 -282 -749 -676 -986 -1181 -99 -211 -197 -499 -237 -699 l-14
-70 -365 3 -366 2 -453 -396 -454 -395 -29 -98 -29 -98 -241 -113 c-402 -189
-1111 -544 -1284 -642 -137 -78 -167 -100 -193 -138 -49 -73 -77 -133 -106
-227 -23 -77 -26 -106 -27 -233 l-1 -145 265 -509 c178 -342 272 -511 285
-517 11 -4 108 -15 215 -24 434 -38 1221 -113 1225 -117 3 -3 16 -58 29 -124
14 -66 28 -132 31 -146 l7 -26 -641 5 -642 6 12 -29 c40 -105 199 -566 199
-578 0 -8 -45 -141 -101 -296 -56 -155 -100 -283 -98 -284 2 -2 118 -11 258
-20 140 -9 256 -17 257 -19 1 -1 41 -123 89 -272 48 -148 89 -272 91 -274 2
-2 54 42 116 98 62 55 116 101 120 101 3 0 77 -97 163 -216 129 -177 160 -213
170 -202 7 7 129 149 272 314 l260 302 -5 51 -5 51 144 0 144 0 558 576 c306
317 557 581 557 587 0 7 -38 164 -84 350 l-83 338 31 13 c17 7 110 41 207 76
l176 63 108 368 c59 202 105 376 103 386 -3 10 -101 233 -217 496 -117 264
-211 480 -209 482 17 14 461 266 463 263 3 -2 -20 -98 -50 -213 l-55 -209 206
-459 205 -458 -163 -447 -163 -447 -140 -52 c-77 -28 -144 -53 -149 -55 -5 -2
24 -136 64 -297 61 -245 71 -297 61 -313 -7 -11 -316 -352 -688 -759 -658
-721 -676 -739 -707 -734 -17 3 -60 10 -96 15 l-65 10 -44 -47 c-137 -149
-413 -518 -553 -739 -397 -626 -625 -1227 -713 -1874 -22 -162 -30 -542 -16
-725 37 -454 170 -916 368 -1271 57 -102 73 -121 73 -86 0 33 78 326 118 443
173 506 477 992 867 1386 l150 151 -48 74 c-110 169 -195 367 -247 576 -52
212 -65 323 -64 582 0 231 7 315 41 495 l17 90 27 -135 c108 -544 323 -1058
630 -1510 94 -138 238 -322 249 -318 13 5 670 797 670 808 0 5 -26 45 -58 89
-249 335 -432 748 -508 1150 -21 106 -27 176 -31 321 l-4 185 76 -175 c395
-916 876 -1585 1396 -1943 89 -62 281 -162 322 -169 15 -3 44 65 177 407 88
225 160 414 160 420 0 6 -21 29 -47 50 -192 160 -475 451 -641 659 -282 352
-485 727 -567 1051 -23 93 -50 274 -41 282 2 3 34 -55 70 -128 345 -695 887
-1278 1554 -1672 377 -223 829 -401 1232 -482 149 -31 180 -32 180 -7 0 11 25
250 55 533 30 282 53 514 52 515 -1 1 -40 21 -86 44 -235 117 -611 337 -843
493 -339 227 -563 410 -819 666 -197 198 -310 331 -422 501 -61 92 -177 312
-177 335 0 5 73 -63 163 -151 485 -477 969 -849 1532 -1179 666 -391 1453
-685 2085 -780 137 -21 134 -21 116 13 -24 47 -65 231 -80 362 -26 216 -37
386 -43 682 -5 251 -8 288 -22 293 -9 2 -72 16 -141 30 -1111 231 -2077 630
-2731 1126 -206 157 -401 346 -536 519 -55 71 -127 180 -118 180 3 0 58 -42
123 -93 928 -737 1931 -1167 3142 -1346 343 -51 655 -79 1335 -121 896 -55
1247 -106 1610 -230 172 -60 157 -57 150 -24 -13 60 -118 253 -194 354 -187
251 -528 594 -892 898 l-86 72 -209 0 c-254 0 -802 16 -1054 30 -1326 75
-2584 317 -3195 615 -115 56 -213 120 -202 131 2 2 30 -8 63 -22 243 -108 587
-197 979 -253 536 -77 825 -90 2224 -101 1347 -10 1644 -21 2029 -71 182 -23
325 -50 445 -83 48 -13 87 -21 87 -17 0 4 -41 81 -91 172 -169 305 -365 583
-567 805 -129 141 -218 223 -368 335 -187 140 -294 188 -519 234 -253 51 -387
60 -950 60 -503 0 -646 -5 -1135 -41 -499 -36 -1231 -112 -1820 -189 -84 -11
325 111 615 184 1199 299 2569 375 3905 215 242 -28 702 -104 798 -130 14 -4
22 -2 22 7 0 24 -112 294 -172 413 -133 265 -271 461 -471 665 -378 386 -852
613 -1457 697 -177 25 -606 25 -779 0 -69 -9 -128 -19 -133 -22 -4 -3 -8 -2
-8 3 0 12 57 48 122 78 73 33 243 71 382 84 60 6 229 11 375 11 255 0 370 -6
619 -31 l112 -11 285 158 c157 87 285 161 285 165 0 15 -207 178 -337 265
-506 342 -1144 536 -1923 585 -175 11 -546 6 -597 -7 -32 -9 -29 8 5 28 98 58
450 118 862 148 l155 12 283 165 c155 92 282 169 282 173 0 12 -207 82 -355
120 -524 134 -1216 131 -1902 -10 -81 -16 -148 -28 -150 -27 -10 11 39 53 97
82 89 45 232 87 446 130 l174 36 140 107 c76 58 137 108 135 110 -8 8 -156 42
-260 59 -138 23 -666 26 -835 5 -279 -35 -599 -91 -722 -128 -46 -14 -3 95 86
218 25 35 79 102 120 151 l76 87 -82 -1 c-46 -1 -119 -5 -163 -10z m-1049
-1557 c19 -13 31 -45 49 -131 36 -180 47 -274 52 -476 8 -313 -17 -505 -99
-750 -42 -128 -136 -320 -193 -397 l-35 -48 -165 0 c-151 0 -186 6 -155 25 20
12 92 168 125 269 42 128 79 308 104 506 17 133 41 396 41 453 0 13 -68 -28
-262 -160 -580 -393 -524 -358 -552 -339 -32 20 -33 54 -6 113 117 260 694
816 956 922 50 20 120 27 140 13z m-2668 -1959 c-233 -273 -582 -663 -588
-656 -39 40 -298 389 -292 394 4 4 151 50 327 103 176 54 374 115 440 136 66
21 122 39 124 39 2 1 -3 -7 -11 -16z m-1968 -1137 c0 -4 -210 -552 -232 -606
-10 -23 -22 -2 -133 225 -68 138 -122 251 -122 252 2 2 470 131 480 132 4 1 7
-1 7 -3z"/>
</g>
</svg>
